<?xml version="1.0" encoding="UTF-8" standalone="no"?>
<svg
   version="1.1"
   id="繝ｬ繧､繝､繝ｼ_1"
   x="0px"
   y="0px"
   viewBox="0 0 38.099998 38.099998"
   enable-background="new 0 0 52 52"
   xml:space="preserve"
   sodipodi:docname="mfgt.svg"
   width="38.099998"
   height="38.099998"
   inkscape:version="1.4 (86a8ad7, 2024-10-11)"
   xmlns:inkscape="http://www.inkscape.org/namespaces/inkscape"
   xmlns:sodipodi="http://sodipodi.sourceforge.net/DTD/sodipodi-0.dtd"
   xmlns="http://www.w3.org/2000/svg"
   xmlns:svg="http://www.w3.org/2000/svg"><defs
   id="defs844" /><sodipodi:namedview
   id="namedview842"
   pagecolor="#505050"
   bordercolor="#eeeeee"
   borderopacity="1"
   objecttolerance="10.0"
   gridtolerance="10.0"
   guidetolerance="10.0"
   inkscape:pageshadow="0"
   inkscape:pageopacity="0"
   inkscape:pagecheckerboard="0"
   showgrid="false"
   fit-margin-top="0"
   fit-margin-left="0"
   fit-margin-right="0"
   fit-margin-bottom="0"
   inkscape:zoom="16.326923"
   inkscape:cx="16.108363"
   inkscape:cy="17.6702"
   inkscape:window-width="2460"
   inkscape:window-height="1411"
   inkscape:window-x="2491"
   inkscape:window-y="-9"
   inkscape:window-maximized="1"
   inkscape:current-layer="繝ｬ繧､繝､繝ｼ_1"
   inkscape:showpageshadow="2"
   inkscape:deskcolor="#d1d1d1" />
<rect
   x="-7"
   y="-14.1"
   fill="none"
   width="52"
   height="52"
   id="rect835" />

<g
   id="Symbols"
   stroke="none"
   stroke-width="1"
   fill="none"
   fill-rule="evenodd"
   transform="matrix(0.65924408,0,0,0.65924408,-2.3369774e-5,6.678491)"
   style="fill:#b80000;fill-opacity:1"><g
     id="header"
     transform="translate(-35,-37)"
     fill="#ffffff"
     style="fill:#b80000;fill-opacity:1"><g
       id="Group-3"
       transform="translate(35,37)"
       style="fill:#b80000;fill-opacity:1"><path
         d="m 43.496297,0.93096514 c 0.169081,-0.4986642 0.296474,-0.51781333 0.693929,-0.51781333 h 13.161598 c 0.41325,0 0.521741,0.0868269 0.386839,0.50915688 C 57.619038,1.2911261 53.951315,11.6369 53.467637,13.112432 c -0.08286,0.264153 -0.359911,0.325797 -0.491188,0.325797 H 41.413476 c -1.966045,0 -2.023786,0.01758 -2.785554,2.375541 -1.55383,4.670026 -4.695152,14.079329 -5.226473,15.73927 -0.07923,0.240019 -0.19575,0.374063 -0.416357,0.374063 h -8.626205 c -0.220608,0 -0.255822,-0.100992 -0.194197,-0.291434 0.777563,-2.392066 6.334688,-18.599834 6.46959,-18.935861 0.243651,-0.583655 0.484196,-1.044283 1.323901,-1.044283 h 3.524018 c 2.219536,0 4.38858,-0.451972 5.435429,-3.4397604 0,0 2.453866,-6.9107357 2.578669,-7.28479946"
         id="Fill-1"
         style="fill:#b80000;fill-opacity:1" /><path
         d="M 31.926204,0.40019336 C 30.820061,0.36530523 27.604945,0.24726268 24.796864,0.55181246 12.687293,1.8898904 3.9399089,8.384067 0.94617679,17.766351 -2.6133143,28.945768 4.6594714,35.363086 9.6829446,37.163891 c 0.2677322,0.09129 0.4520894,0.05797 0.5528124,-0.196475 0.103054,-0.258383 0.651464,-1.68591 0.713866,-1.892878 0.05981,-0.205657 -0.07121,-0.349144 -0.334535,-0.45853 C 5.5004714,32.435631 3.7855875,27.222085 5.6962214,22.00303 7.7795607,16.308657 14.486329,12.884636 20.633034,12.138082 c 0.782482,-0.09575 2.168009,-0.237396 3.262759,-0.255234 3.099634,-0.05194 4.732955,-0.689106 5.501714,-2.8972886 0.849286,-2.4424316 2.654536,-7.7275902 2.767688,-8.10139157 0.112375,-0.36829277 0.01813,-0.4734818 -0.238991,-0.48397447"
         id="Fill-3"
         style="fill:#b80000;fill-opacity:1" /><path
         d="m 25.992338,18.200591 -5.569554,0.0018 c -2.018607,0 -3.985947,1.393951 -4.836786,3.772115 -0.543491,1.522749 -2.893009,8.198187 -3.340696,9.613123 -0.0668,0.214313 0.04298,0.339438 0.219312,0.339438 h 9.063018 c 0.261777,0 0.370786,-0.116731 0.435,-0.317665 0.606152,-1.8795 4.357768,-12.749383 4.39117,-12.947694 0.03262,-0.220609 -0.05593,-0.461153 -0.361464,-0.461153"
         id="Fill-5"
         style="fill:#b80000;fill-opacity:1" /></g></g></g></svg>
